<?xml version="1.0" encoding="UTF-8"?>
<svg width="173px" height="30px" viewBox="0 0 173 30" version="1.1" xmlns="http://www.w3.org/2000/svg" xmlns:xlink="http://www.w3.org/1999/xlink">
    <title>powerchina-wiot</title>
    <g id="租户控制台" stroke="none" stroke-width="1" fill="none" fill-rule="evenodd">
        <g id="带页迁导航样式" transform="translate(-16.000000, -9.000000)">
            <g id="powerchina-wiot" transform="translate(16.000000, 9.000000)">
                <path d="M117.098,25.2 C118.594,25.2 119.342,24.386 119.342,22.758 L119.342,14.178 C120.97,17.522 123.5,20.602 126.932,23.44 L128.362,21.328 C125.766,19.612 123.632,17.434 121.938,14.794 C123.72,13.386 125.436,11.67 127.108,9.624 L125.26,8.238 C123.94,10.02 122.488,11.604 120.882,13.012 C120.31,11.912 119.782,10.746 119.342,9.47 L119.342,4.894 L117.01,4.894 L117.01,22.164 C117.01,22.78 116.768,23.11 116.306,23.11 C115.47,23.11 114.59,23.044 113.666,22.956 L114.172,25.2 L117.098,25.2 Z M109.156,23.176 C112.5,20.668 114.7,16.972 115.756,12.088 L115.756,10.284 L108.452,10.284 L108.452,12.484 L113.49,12.484 C112.434,16.268 110.52,19.216 107.704,21.284 L109.156,23.176 Z M139.648,25.442 C141.936,23.946 143.52,21.68 144.422,18.666 C145.126,20.866 146.556,23.088 148.712,25.332 L150.296,23.616 C147.876,21.372 146.358,19.15 145.764,16.95 L149.944,16.95 L149.944,14.75 L145.17,14.75 C145.258,13.87 145.302,12.924 145.302,11.934 L145.302,11.648 L149.548,11.648 L149.548,9.492 L146.754,9.492 C147.37,8.458 147.986,7.204 148.602,5.752 L146.468,4.938 C145.918,6.566 145.258,8.084 144.488,9.492 L141.936,9.492 L143.498,8.392 C143.058,7.424 142.42,6.302 141.606,5.026 L139.846,6.148 C140.638,7.358 141.276,8.48 141.76,9.492 L139.032,9.492 L139.032,11.648 L143.08,11.648 L143.08,12.462 C143.08,13.254 143.036,14.002 142.948,14.75 L138.68,14.75 L138.68,16.95 L142.618,16.95 C141.936,19.986 140.484,22.208 138.262,23.572 L139.648,25.442 Z M137.69,25.31 L137.69,21.196 C138.086,21.086 138.504,20.976 138.9,20.844 L138.9,18.622 C138.504,18.754 138.108,18.886 137.69,19.018 L137.69,7.732 L138.856,7.732 L138.856,5.62 L129.924,5.62 L129.924,7.732 L131.024,7.732 L131.024,20.58 L129.814,20.756 L130.364,22.934 C132.124,22.582 133.818,22.208 135.468,21.812 L135.468,25.31 L137.69,25.31 Z M135.468,10.328 L133.202,10.328 L133.202,7.732 L135.468,7.732 L135.468,10.328 Z M135.468,14.904 L133.202,14.904 L133.202,12.396 L135.468,12.396 L135.468,14.904 Z M133.202,20.184 L133.202,16.972 L135.468,16.972 L135.468,19.656 C134.72,19.832 133.972,20.008 133.202,20.184 Z M155.224,25.31 L155.224,12.11 C156.148,13.232 157.072,14.398 157.952,15.586 C157.292,17.61 156.456,19.414 155.444,20.954 L156.896,22.758 C157.886,21.35 158.744,19.678 159.47,17.742 C159.998,18.534 160.526,19.348 161.054,20.184 L162.572,18.666 C161.78,17.434 161.01,16.312 160.262,15.3 C160.768,13.496 161.186,11.516 161.516,9.316 L159.404,8.942 C159.206,10.394 158.942,11.802 158.634,13.122 C157.886,12.154 157.182,11.318 156.522,10.614 L155.224,11.868 L155.224,7.842 L168.776,7.842 L168.776,19.546 C167.984,18.226 167.214,16.994 166.466,15.872 C167.082,13.936 167.588,11.758 167.962,9.382 L165.806,9.008 C165.564,10.614 165.256,12.132 164.882,13.562 C164.134,12.506 163.43,11.626 162.792,10.878 L161.384,12.242 C162.33,13.474 163.254,14.728 164.134,16.026 C163.386,18.094 162.462,19.898 161.362,21.482 L162.814,23.286 C163.87,21.878 164.794,20.228 165.586,18.292 C166.202,19.26 166.774,20.25 167.346,21.262 L168.776,19.832 L168.776,22.318 C168.776,22.802 168.512,23.044 168.006,23.044 L165.982,22.934 L166.554,25.156 L168.754,25.156 C170.272,25.156 171.042,24.386 171.042,22.846 L171.042,5.642 L152.958,5.642 L152.958,25.31 L155.224,25.31 Z" id="wiot" fill="#FFFFFF" fill-rule="nonzero"></path>
                <g id="powerchina-logo">
                    <rect id="矩形" x="0" y="0" width="96" height="30"></rect>
                    <g id="powerchina" transform="translate(1.000000, 2.000000)" fill="#FFFFFF" fill-rule="nonzero">
                        <path d="M47.5019279,4.77526521 L47.5019279,3.29003416 L45.4855857,3.29003416 L45.4855857,4.77056512 L40.8888896,4.77056512 L40.8888896,13.1602405 L45.499686,13.1602405 L45.499686,15.2705846 L47.5160282,15.2705846 L47.5160282,13.1602405 L50.5710921,13.1602405 C51.9153202,13.1602405 52.1785257,12.5163271 52.1785257,11.557507 L52.1785257,4.77526521 L47.5019279,4.77526521 Z M45.4855857,6.50490137 L45.4855857,11.4071039 L42.8347303,11.4071039 L42.8347303,6.50490137 L45.4855857,6.50490137 Z M50.3031865,6.50490137 L50.3031865,11.4071039 L47.4831275,11.4071039 L47.4831275,6.50490137 L50.3031865,6.50490137 Z" id="形状"></path>
                        <path d="M79.4296954,13.6678511 L75.199607,13.6678511 C74.4428911,13.6678511 74.3770898,13.3106437 74.3770898,12.897035 L74.3770898,12.3800242 L77.1360474,12.3800242 C78.0055656,12.3800242 78.9079845,12.0510173 78.9079845,10.6033871 L78.9079845,4.20185323 L74.3770898,4.20185323 L74.3770898,3.21953269 L72.379548,3.21953269 L72.379548,4.20185323 L67.8580535,4.20185323 L67.8580535,12.3800242 L72.379548,12.3800242 L72.379548,13.5409485 C72.3742272,14.1228202 72.6690957,14.666373 73.1597643,14.9791785 C73.6726779,15.3017551 74.2695968,15.4652946 74.8753002,15.4491884 L79.4296954,15.4491884 L79.4296954,13.6678511 Z M76.9997446,10.9088934 L74.38649,10.9088934 L74.38649,9.16515699 L76.9997446,9.16515699 L76.9997446,10.9088934 Z M74.38649,7.48252181 L74.38649,5.67298398 L76.9997446,5.67298398 L76.9997446,7.48252181 L74.38649,7.48252181 Z M72.379548,5.67298398 L72.379548,7.48252181 L69.7709935,7.48252181 L69.7709935,5.67298398 L72.379548,5.67298398 Z M72.379548,9.16515699 L72.379548,10.9088934 L69.7709935,10.9088934 L69.7709935,9.16515699 L72.379548,9.16515699 Z" id="形状"></path>
                        <path d="M85.8782302,5.42387877 L85.8782302,4.14545205 L81.5494397,4.14545205 L81.5494397,5.37217769 L83.9323895,5.37217769 L81.5494397,7.99013242 L81.5494397,9.22625827 L84.2378959,9.22625827 C84.1310053,9.92715257 83.9530511,10.6153469 83.7067848,11.2802012 C83.4540277,10.8354058 83.2552197,10.3620533 83.1145724,9.87017173 L81.6199412,9.87017173 C81.9040544,10.8683229 82.334901,11.8187198 82.8983679,12.6902307 C82.3817642,13.2585928 81.8223829,13.7865482 81.2251329,14.2694637 L82.1087514,15.5008894 L82.3437563,15.336386 C82.965225,14.9067074 83.5209449,14.3889854 83.9934908,13.7994539 C85.0651132,14.5608698 85.9722322,15.1342818 88.3316815,15.1342818 L93.7837955,15.1342818 L93.7837955,13.6725512 L90.3339234,13.6725512 L90.3339234,12.8265335 L93.2009833,12.8265335 L93.2009833,11.6421088 L90.3339234,11.6421088 L90.3339234,10.9746948 L93.2009833,10.9746948 L93.2009833,9.79027006 L90.3339234,9.79027006 L90.3339234,9.1416565 L92.0118584,9.1416565 C93.04118,9.1416565 93.2009833,8.46014225 93.2009833,7.73162702 L93.2009833,7.21461621 L93.7837955,7.21461621 L93.7837955,6.05839204 L93.2009833,6.05839204 L93.2009833,4.14545205 L90.3339234,4.14545205 L90.3339234,3.41223672 L88.5337857,3.41223672 L88.5337857,4.14545205 L86.3153393,4.14545205 L86.3153393,5.32987681 L88.5337857,5.32987681 L88.5337857,6.05839204 L86.3153393,6.05839204 L86.3153393,7.21461621 L88.5337857,7.21461621 L88.5337857,7.90083056 L86.3153393,7.90083056 L86.3153393,9.1416565 L88.5337857,9.1416565 L88.5337857,9.79027006 L86.3153393,9.79027006 L86.3153393,10.9746948 L88.5337857,10.9746948 L88.5337857,11.6421088 L86.3153393,11.6421088 L86.3153393,12.8265335 L88.5337857,12.8265335 L88.5337857,13.6678511 C85.9299313,13.6678511 85.2907179,13.0145375 84.816008,12.5445276 C85.3984823,11.404542 85.7559337,10.1630367 85.86883,8.88785119 L85.86883,7.89613046 L83.6127828,7.89613046 M90.3339234,5.32987681 L91.7439528,5.32987681 L91.7439528,6.05839204 L90.3339234,6.05839204 L90.3339234,5.32987681 Z M90.3339234,7.20991611 L91.7439528,7.20991611 L91.7439528,7.89613046 L90.3339234,7.89613046 L90.3339234,7.20991611 Z" id="形状"></path>
                        <path d="M63.4493613,10.9417941 L61.9265295,10.9417941 L61.9265295,11.651509 L60.9583092,11.651509 L60.9583092,10.1051766 L63.1391548,10.1051766 L63.1391548,8.72334775 L60.9583092,8.72334775 L60.9583092,7.45432122 L63.4493613,7.45432122 L63.4493613,6.06779224 L56.5778176,6.06779224 L56.5778176,7.45432122 L59.0500693,7.45432122 L59.0500693,8.72334775 L56.8974243,8.72334775 L56.8974243,10.1051766 L59.0500693,10.1051766 L59.0500693,11.651509 L56.5778176,11.651509 L56.5778176,13.0615384 L63.4493613,13.0615384 L63.4493613,10.9417941 Z M54.1478668,3.78824458 L54.1478668,15.3504863 L64.1825766,15.3504863 C65.4281027,15.3504863 65.9028126,14.7535738 65.9028126,13.5127479 L65.9028126,3.78824458 L54.1478668,3.78824458 Z M64.0603741,13.851155 L55.9903054,13.851155 L55.9903054,5.21237435 L64.0603741,5.21237435 L64.0603741,13.851155 Z" id="形状"></path>
                        <path d="M40.8512889,17.6958353 C41.4479104,17.6161039 42.0495509,17.579974 42.6514265,17.5877331 C43.2820607,17.538394 43.9121457,17.6897461 44.4515641,18.0201421 C44.8554752,18.3060175 45.0886029,18.7758054 45.0719771,19.2703683 C45.0933894,19.7497283 44.8963458,20.2129537 44.5361659,20.5299946 C43.9805121,20.9318588 43.3030953,21.1294387 42.6185258,21.0893063 C42.4613601,21.0921819 42.3042103,21.082753 42.148516,21.0611057 L42.148516,22.9693456 L40.8512889,22.9693456 L40.8512889,17.6958353 Z M42.1720165,20.1116858 C42.3167011,20.1330433 42.4628961,20.1424752 42.6091256,20.1398864 C43.3188404,20.1398864 43.7559496,19.8202798 43.7559496,19.2844685 C43.7559496,18.7486573 43.394042,18.5042522 42.7172279,18.5042522 C42.5348509,18.4972506 42.3522281,18.508271 42.1720165,18.5371529 L42.1720165,20.1116858 Z" id="形状"></path>
                        <path d="M48.4090469,23.0304469 C47.6728746,23.0763549 46.9517718,22.8078856 46.4248592,22.2917264 C45.8979467,21.7755672 45.614668,21.0601525 45.6453891,20.3231903 C45.6217959,19.5645748 45.9177323,18.8308942 46.4610744,18.300957 C47.0044164,17.7710197 47.7452592,17.4934995 48.5030488,17.536032 C49.2376121,17.48239 49.9604451,17.7429118 50.4918861,18.2528443 C51.0233271,18.7627767 51.3134729,19.4742362 51.2902071,20.2103879 C51.2902071,21.9635246 50.1339829,23.0304469 48.413747,23.0304469 L48.4090469,23.0304469 Z M48.4748482,22.0904272 C49.3678669,22.0904272 49.8848777,21.3243112 49.8848777,20.2808894 C49.8848777,19.3408697 49.3866673,18.5089523 48.4748482,18.5089523 C47.5630292,18.5089523 47.0648188,19.3126691 47.0648188,20.3043899 C47.0648188,21.2961106 47.60063,22.0904272 48.4748482,22.0904272 L48.4748482,22.0904272 Z" id="形状"></path>
                        <path d="M53.1091451,22.9458451 L51.6991156,17.6253339 L53.1091451,17.6253339 C53.1091451,17.6253339 53.8047597,20.7649995 53.9034617,21.3055108 L53.9034617,21.3055108 C54.0021638,20.7226986 54.7870802,17.6253339 54.7870802,17.6253339 L56.1971097,17.6253339 L56.9820261,21.2726101 L56.9820261,21.2726101 L57.7998432,17.6253339 L59.2192729,17.6253339 L57.7011411,22.9458451 L56.258211,22.9458451 L55.4873948,19.0118628 L55.4873948,19.0118628 L54.5943762,22.9458451 L53.1091451,22.9458451 Z" id="路径"></path>
                        <polygon id="路径" points="63.38826 20.6803977 61.2309149 20.6803977 61.2309149 21.9447242 63.6467654 21.9447242 63.6467654 22.9317448 59.8866868 22.9317448 59.8866868 17.6253339 63.5057625 17.6253339 63.5057625 18.6076544 61.2121145 18.6076544 61.2121145 19.7121775 63.3694596 19.7121775"></polygon>
                        <path d="M64.5444842,17.7052355 C65.1312864,17.6211035 65.723648,17.5818222 66.3164212,17.5877331 C66.9794465,17.5279498 67.6446581,17.6757746 68.219961,18.0107419 C68.580291,18.2643306 68.7859617,18.6845371 68.7651724,19.1246652 C68.7396054,19.7386143 68.3193887,20.2653112 67.7264507,20.4265924 L67.7264507,20.4265924 C68.1375734,20.6036119 68.4336117,20.9736598 68.5160672,21.4136131 C68.6471167,21.9241499 68.8039883,22.4277079 68.986077,22.9223446 L67.6277487,22.9223446 C67.4520824,22.5236438 67.3181981,22.107815 67.2282403,21.6815187 C67.0590368,21.0141047 66.8099316,20.8402011 66.25532,20.8261008 L65.8652118,20.8261008 L65.8652118,22.9223446 L64.5444842,22.9223446 L64.5444842,17.7052355 Z M65.8652118,19.9847832 L66.3869227,19.9847832 C67.0496366,19.9847832 67.4444448,19.6839769 67.4444448,19.2186672 C67.4444448,18.7533574 67.0778372,18.4854518 66.4621243,18.4854518 C66.2624295,18.480119 66.0626588,18.492703 65.8652118,18.5230526 L65.8652118,19.9847832 Z" id="形状"></path>
                        <path d="M73.6955755,22.800142 C73.2119532,22.9658898 72.7026041,23.0438839 72.1915441,23.0304469 C70.1611016,23.0304469 69.1129797,21.8789228 69.1129797,20.356091 C69.1129797,18.5371529 70.5230092,17.536032 72.3231468,17.536032 C72.8162916,17.5208712 73.307753,17.6006539 73.7707771,17.7710369 L73.4887712,18.7110566 C73.1337897,18.5731258 72.755659,18.5045198 72.3748479,18.5089523 C71.326726,18.5089523 70.4948086,19.0870644 70.4948086,20.2761893 C70.4948086,21.3478117 71.185723,22.0105255 72.3748479,22.0105255 C72.7549694,22.017625 73.1334454,21.9587863 73.4934713,21.8366219 L73.6955755,22.800142 Z" id="路径"></path>
                        <polygon id="路径" points="75.8999216 17.6253339 75.8999216 19.6745767 78.0901674 19.6745767 78.0901674 17.6253339 79.4296954 17.6253339 79.4296954 22.9458451 78.1042677 22.9458451 78.1042677 20.7273987 75.9140219 20.7273987 75.9140219 22.9458451 74.5932943 22.9458451 74.5932943 17.6253339"></polygon>
                        <polygon id="路径" points="81.9066472 17.6253339 81.9066472 22.9458451 80.5765194 22.9458451 80.5765194 17.6253339"></polygon>
                        <path d="M83.0534711,22.9458451 L83.0534711,17.6253339 L84.5998035,17.6253339 L85.821829,19.5758746 C86.1710446,20.162964 86.4849415,20.7703546 86.7618487,21.3948127 L86.7618487,21.3948127 C86.6826377,20.6565227 86.6481074,19.9141212 86.6584465,19.1716662 L86.6584465,17.6253339 L87.875772,17.6253339 L87.875772,22.9458451 L86.4657425,22.9458451 L85.2108163,20.8966023 C84.8371869,20.2879513 84.4951924,19.6604383 84.1861948,19.0165629 L84.1532941,19.0165629 C84.2049952,19.7262778 84.2190955,20.4782935 84.2190955,21.3431116 L84.2190955,22.9505452 L83.0534711,22.9458451 Z" id="路径"></path>
                        <path d="M90.4279253,21.5781165 L90.0190168,22.9458451 L88.6324878,22.9458451 L90.4326254,17.6253339 L92.1669617,17.6253339 L94,22.9458451 L92.5899705,22.9458451 L92.1199607,21.5781165 L90.4279253,21.5781165 Z M91.9178565,20.6803977 L91.5465487,19.5570742 C91.4572468,19.2374676 91.3491446,18.8379592 91.2598427,18.5277527 L91.2598427,18.5277527 C91.179941,18.8473594 91.0859391,19.2515679 90.9919371,19.5570742 L90.6159293,20.6803977 L91.9178565,20.6803977 Z" id="形状"></path>
                        <path d="M33.8387422,12.0557174 L21.9286933,0.126868032 C25.7404729,3.94334782 24.1753402,8.47894264 22.8687129,9.79027006 L17.7597061,14.9603781 C14.2299323,18.443151 15.3673561,20.5111942 17.9195094,23.0398471 L21.0591751,26.193613 C21.2752478,26.4467313 21.6493849,26.4917095 21.9192931,26.2970152 L33.6695387,14.5467695 C34.6095584,13.4610468 34.2288504,12.5586279 33.8528425,12.0604175" id="路径"></path>
                        <path d="M21.0262744,0.258470783 L21.0262744,0.258470783 L18.1028133,3.16313151 C18.0218847,3.22443903 17.9743376,3.3201084 17.9743376,3.42163691 C17.9743376,3.52316542 18.0218847,3.61883479 18.1028133,3.68014232 L22.8546126,8.21103704 C23.0144465,8.40680929 23.1227085,8.63949178 23.1695192,8.88785119 C23.1695192,8.88785119 23.1695192,8.88785119 23.1695192,8.91605178 L23.1695192,8.91605178 C23.1717872,8.94263739 23.1717872,8.96936784 23.1695192,8.99595345 C24.1095388,7.16291513 24.4855467,3.4545376 21.0027739,0.258470783" id="路径"></path>
                        <path d="M0.392843014,14.3634657 L12.3169923,26.287615 C8.50521261,22.4711352 10.0703453,17.9355403 11.3769727,16.628913 L16.4859795,11.4588049 C20.0157533,7.97603213 18.8783295,5.90798889 16.3261761,3.37463593 L13.1865105,0.220869997 C12.9707476,-0.0300847173 12.5983375,-0.0730551085 12.3310926,0.122167934 L0.580846944,11.8724136 C-0.340372315,12.9628364 0.0215352509,13.8652553 0.392843014,14.3634657" id="路径"></path>
                        <path d="M13.2194112,26.1560122 C13.2194112,26.1560122 13.2194112,26.1560122 13.2194112,26.1560122 L16.1569726,23.2419513 C16.2379011,23.1806438 16.2854482,23.0849744 16.2854482,22.9834459 C16.2854482,22.8819174 16.2379011,22.786248 16.1569726,22.7249405 L11.3769727,18.2034459 C11.215918,18.0084416 11.1075031,17.7754305 11.0620661,17.5266318 C11.064265,17.5173602 11.064265,17.5077028 11.0620661,17.4984312 L11.0620661,17.4984312 C11.0595842,17.4734254 11.0595842,17.4482354 11.0620661,17.4232296 C10.1220464,19.2515679 9.75073865,22.9646455 13.2288114,26.1560122" id="路径"></path>
                    </g>
                </g>
            </g>
        </g>
    </g>
</svg>